<svg width="315" height="383" viewBox="0 0 315 383" fill="none" xmlns="http://www.w3.org/2000/svg">
<mask id="mask0_473_1098" style="mask-type:alpha" maskUnits="userSpaceOnUse" x="0" y="0" width="315" height="383">
<rect width="315" height="383" rx="10" fill="#232222" fill-opacity="0.86"/>
<rect x="0.5" y="0.5" width="314" height="382" rx="9.5" stroke="white" stroke-opacity="0.6"/>
</mask>
<g mask="url(#mask0_473_1098)">
<rect x="-18" y="-29" width="345" height="430" fill="#FCA600"/>
<path d="M74.608 227.758L115.506 138L165.09 231.378L128.535 321.86L74.608 227.758Z" fill="url(#paint0_linear_473_1098)"/>
<path d="M74.6081 227.758L-46.6381 240.788L-1.75891 154.287L115.506 138L74.6081 227.758Z" fill="url(#paint1_linear_473_1098)"/>
<path d="M128.535 321.86L9.82286 330.546L-46.6381 240.788L74.6081 227.758L128.535 321.86Z" fill="url(#paint2_linear_473_1098)"/>
<path d="M-9.35949 267.932C-7.18792 273.361 -0.311284 276.257 5.84151 274.809C11.9943 273.361 14.8897 267.932 12.7181 262.865C10.5466 257.437 3.66992 254.541 -2.48287 255.989C-8.63566 257.075 -11.5311 262.503 -9.35949 267.932Z" fill="white"/>
<path d="M40.9488 262.866C43.1203 268.295 49.997 271.19 56.1498 269.742C62.3025 268.295 65.198 262.866 63.0264 257.799C60.8549 252.37 53.9782 249.474 47.8254 250.922C41.6726 252.008 38.4153 257.437 40.9488 262.866Z" fill="white"/>
<path d="M78.5893 311.002C84.7421 309.554 87.6375 304.125 85.4659 299.058C82.9324 293.991 76.0558 290.734 69.903 292.182C63.7502 293.629 60.8548 299.058 63.0264 304.125C65.5599 309.554 72.4365 312.45 78.5893 311.002Z" fill="white"/>
<path d="M31.1767 315.707C37.3295 314.259 40.2249 308.83 38.0533 303.763C35.5198 298.696 28.6432 295.439 22.4904 296.887C16.3377 298.335 13.4422 303.763 15.6138 308.83C18.1473 313.897 25.0239 317.155 31.1767 315.707Z" fill="white"/>
<path d="M60.131 210.386C62.6645 204.957 59.7691 199.89 54.3401 199.166C48.9112 198.442 42.3965 202.423 39.863 208.214C37.3295 213.643 40.2249 218.71 45.6539 219.434C51.4447 219.796 57.9594 215.815 60.131 210.386Z" fill="white"/>
<path d="M25.7478 172.021C28.2813 166.592 25.3859 161.525 19.957 160.801C14.528 160.077 8.01331 164.059 5.47981 169.85C2.94631 175.278 5.84176 180.345 11.2707 181.069C16.6996 181.431 23.2143 177.45 25.7478 172.021Z" fill="white"/>
<path d="M6.56542 211.11C9.09893 205.681 6.20353 200.614 0.774595 199.89C-4.65434 199.166 -11.1691 203.147 -13.7026 208.938C-16.2361 214.367 -13.3407 219.434 -7.91173 220.158C-2.12087 220.882 4.39385 216.901 6.56542 211.11Z" fill="white"/>
<path d="M74.97 165.506C77.5035 160.078 74.6081 155.011 69.1791 154.287C63.7502 153.563 57.2355 157.544 54.702 163.335C52.1685 168.764 55.0639 173.831 60.4929 174.555C66.2837 174.917 72.7984 170.935 74.97 165.506Z" fill="white"/>
<path d="M43.1202 189.394C45.6537 183.965 42.7582 178.898 37.3293 178.174C31.9003 177.45 25.3856 181.432 22.8521 187.222C20.3186 192.651 23.2141 197.718 28.643 198.442C34.4339 199.166 40.5867 195.185 43.1202 189.394Z" fill="white"/>
<path d="M114.782 220.882C113.334 226.673 115.506 234.997 119.487 240.064C123.468 245.131 127.812 244.407 128.897 238.616C130.345 232.825 128.173 224.501 124.192 219.434C120.211 214.729 115.868 215.091 114.782 220.882Z" fill="white"/>
<path d="M90.8949 220.882C89.4472 226.673 91.6188 234.997 95.6 240.064C99.5812 245.131 103.924 244.407 105.01 238.616C106.458 232.825 104.286 224.501 100.305 219.434C96.3239 214.729 92.3427 215.453 90.8949 220.882Z" fill="white"/>
<path d="M140.479 220.882C139.031 226.673 141.203 234.997 145.184 240.064C149.165 245.131 153.509 244.407 154.594 238.616C156.042 232.825 153.87 224.501 149.889 219.434C145.908 214.729 141.565 215.091 140.479 220.882Z" fill="white"/>
<path d="M105.734 282.047L74.6081 227.758L-46.6381 240.788L-32.8848 262.865L105.734 282.047Z" fill="url(#paint3_linear_473_1098)"/>
<path opacity="0.47" d="M110.439 148.496C64.836 168.764 8.73708 194.099 -31.7989 211.471L-47 240.426L74.2461 227.396L110.439 148.496Z" fill="url(#paint4_linear_473_1098)"/>
<path d="M281.355 238.024L316.45 161L359 241.13L327.631 318.775L281.355 238.024Z" fill="url(#paint5_linear_473_1098)"/>
<path d="M281.355 238.024L177.311 249.205L215.822 174.976L316.45 161L281.355 238.024Z" fill="url(#paint6_linear_473_1098)"/>
<path d="M327.631 318.775L225.761 326.229L177.311 249.205L281.355 238.024L327.631 318.775Z" fill="url(#paint7_linear_473_1098)"/>
<path d="M209.3 272.498C211.164 277.157 217.065 279.642 222.345 278.399C227.624 277.157 230.109 272.498 228.246 268.15C226.382 263.491 220.481 261.007 215.201 262.249C209.921 263.181 207.437 267.839 209.3 272.498Z" fill="white"/>
<path d="M252.471 268.15C254.334 272.809 260.235 275.293 265.515 274.051C270.795 272.809 273.28 268.15 271.416 263.802C269.553 259.143 263.652 256.659 258.372 257.901C253.092 258.833 250.297 263.491 252.471 268.15Z" fill="white"/>
<path d="M284.771 309.457C290.051 308.215 292.536 303.556 290.672 299.208C288.498 294.86 282.597 292.065 277.317 293.307C272.037 294.549 269.553 299.208 271.416 303.556C273.59 308.215 279.491 310.699 284.771 309.457Z" fill="white"/>
<path d="M244.085 313.495C249.365 312.253 251.85 307.594 249.986 303.246C247.812 298.898 241.911 296.102 236.631 297.345C231.352 298.587 228.867 303.246 230.73 307.594C232.904 311.942 238.805 314.737 244.085 313.495Z" fill="white"/>
<path d="M268.932 223.116C271.106 218.457 268.621 214.109 263.962 213.488C259.304 212.867 253.713 216.283 251.539 221.252C249.365 225.911 251.85 230.259 256.509 230.88C261.478 231.191 267.068 227.774 268.932 223.116Z" fill="white"/>
<path d="M239.427 190.194C241.601 185.536 239.116 181.188 234.457 180.566C229.799 179.945 224.208 183.362 222.034 188.331C219.86 192.99 222.345 197.338 227.003 197.959C231.662 198.269 237.253 194.853 239.427 190.194Z" fill="white"/>
<path d="M222.966 223.737C225.14 219.078 222.655 214.73 217.997 214.109C213.338 213.488 207.747 216.904 205.573 221.874C203.399 226.532 205.884 230.88 210.543 231.502C215.512 232.123 221.102 228.706 222.966 223.737Z" fill="white"/>
<path d="M281.666 184.604C283.84 179.945 281.355 175.597 276.696 174.976C272.038 174.355 266.447 177.771 264.273 182.741C262.099 187.399 264.584 191.748 269.242 192.369C274.212 192.679 279.802 189.263 281.666 184.604Z" fill="white"/>
<path d="M254.334 205.102C256.509 200.444 254.024 196.095 249.365 195.474C244.706 194.853 239.116 198.27 236.942 203.239C234.768 207.898 237.253 212.246 241.911 212.867C246.881 213.488 252.16 210.072 254.334 205.102Z" fill="white"/>
<path d="M315.829 232.123C314.587 237.092 316.451 244.235 319.867 248.583C323.283 252.932 327.01 252.31 327.942 247.341C329.184 242.372 327.321 235.229 323.904 230.88C320.488 226.843 316.761 227.153 315.829 232.123Z" fill="white"/>
<path d="M295.331 232.123C294.089 237.092 295.952 244.235 299.369 248.583C302.785 252.932 306.512 252.31 307.444 247.341C308.686 242.372 306.823 235.229 303.406 230.88C299.99 226.843 296.574 227.464 295.331 232.123Z" fill="white"/>
<path d="M308.065 284.611L281.355 238.024L177.311 249.205L189.113 268.15L308.065 284.611Z" fill="url(#paint8_linear_473_1098)"/>
<path opacity="0.47" d="M312.102 170.007C272.969 187.399 224.829 209.14 190.044 224.048L177 248.894L281.044 237.713L312.102 170.007Z" fill="url(#paint9_linear_473_1098)"/>
<path d="M175.226 147.976L273.4 53.9639L289.196 198.802L196.212 295.958L175.226 147.976Z" fill="url(#paint10_linear_473_1098)"/>
<path d="M175.226 147.976L13.3777 102.754L114.985 14.9443L273.4 53.9641L175.226 147.976Z" fill="url(#paint11_linear_473_1098)"/>
<path d="M196.212 295.958L39.8242 246.471L13.3778 102.754L175.226 147.976L196.212 295.958Z" fill="url(#paint12_linear_473_1098)"/>
<path d="M47.2365 156.532C47.2446 164.589 54.5685 171.806 63.1833 173.094C71.798 174.382 78.2758 168.912 78.083 161.317C78.075 153.259 70.751 146.042 62.1362 144.754C53.7063 143.003 47.2285 148.474 47.2365 156.532Z" fill="white"/>
<path d="M114.218 175.73C114.226 183.787 121.55 191.004 130.165 192.292C138.78 193.581 145.258 188.11 145.065 180.515C145.057 172.457 137.733 165.24 129.118 163.952C120.688 162.201 113.747 167.487 114.218 175.73Z" fill="white"/>
<path d="M137.824 256.561C146.439 257.849 152.916 252.379 152.724 244.784C152.067 237.005 144.928 229.325 136.313 228.037C127.699 226.749 121.221 232.219 121.414 239.814C121.885 248.056 129.209 255.273 137.824 256.561Z" fill="white"/>
<path d="M74.7331 238.379C83.3478 239.667 89.8256 234.196 89.6328 226.601C88.9768 218.822 81.8376 211.142 73.2228 209.854C64.6081 208.566 58.1303 214.037 58.3231 221.631C58.9791 229.41 66.1183 237.091 74.7331 238.379Z" fill="white"/>
<path d="M165.565 118.348C171.579 112.692 170.46 104.728 163.88 101.03C157.301 97.3316 146.929 99.1017 140.73 105.221C134.715 110.876 135.835 118.84 142.414 122.539C149.642 125.958 160.013 124.188 165.565 118.348Z" fill="white"/>
<path d="M141.14 51.6874C147.154 46.0317 146.035 38.0677 139.455 34.3695C132.876 30.6713 122.504 32.4414 116.305 38.5603C110.291 44.216 111.41 52.1801 117.99 55.8782C124.754 59.1131 135.125 57.3431 141.14 51.6874Z" fill="white"/>
<path d="M96.6301 91.9278C102.645 86.2722 101.525 78.3083 94.9457 74.6101C88.3662 70.9119 77.9947 72.682 71.7954 78.8009C65.7809 84.4566 66.9002 92.4205 73.4798 96.1187C80.5226 100.002 90.894 98.2316 96.6301 91.9278Z" fill="white"/>
<path d="M207.471 68.4778C213.485 62.8221 212.366 54.8581 205.786 51.1599C199.207 47.4617 188.835 49.2318 182.636 55.3507C176.621 61.0064 177.741 68.9705 184.32 72.6686C191.548 76.0883 201.919 74.3182 207.471 68.4778Z" fill="white"/>
<path d="M154.507 82.7935C160.522 77.1378 159.402 69.1739 152.823 65.4757C146.243 61.7775 135.872 63.5476 129.672 69.6665C123.658 75.3222 124.777 83.2861 131.357 86.9843C138.4 90.8672 148.308 88.9124 154.507 82.7935Z" fill="white"/>
<path d="M230.16 159.684C225.351 166.357 223.88 178.121 226.389 186.639C228.899 195.158 234.827 196.448 239.174 189.59C243.983 182.917 245.453 171.153 242.944 162.635C240.25 154.58 234.506 152.826 230.16 159.684Z" fill="white"/>
<path d="M199.584 147.489C194.775 154.162 193.305 165.926 195.814 174.444C198.323 182.963 204.252 184.254 208.598 177.395C213.407 170.722 214.878 158.958 212.368 150.44C209.674 142.385 204.209 141.279 199.584 147.489Z" fill="white"/>
<path d="M263.052 172.803C258.243 179.476 256.773 191.24 259.282 199.758C261.791 208.277 267.72 209.568 272.066 202.71C276.876 196.036 278.346 184.272 275.837 175.754C273.143 167.699 267.399 165.945 263.052 172.803Z" fill="white"/>
<path d="M187.351 233.358L175.226 147.976L13.3778 102.754L19.7109 138.035L187.351 233.358Z" fill="url(#paint13_linear_473_1098)"/>
<path opacity="0.47" d="M261.556 64.8118C192.836 67.4734 108.094 71.2624 47.3387 72.8047L13.0992 102.106L174.948 147.328L261.556 64.8118Z" fill="url(#paint14_linear_473_1098)"/>
</g>
<defs>
<linearGradient id="paint0_linear_473_1098" x1="232.857" y1="231.693" x2="19.4409" y2="228.336" gradientUnits="userSpaceOnUse">
<stop stop-color="#D40000"/>
<stop offset="1" stop-color="#FF5555"/>
</linearGradient>
<linearGradient id="paint1_linear_473_1098" x1="76.5778" y1="241.946" x2="-85.9827" y2="39.838" gradientUnits="userSpaceOnUse">
<stop stop-color="#D40000"/>
<stop offset="1" stop-color="#FF5555"/>
</linearGradient>
<linearGradient id="paint2_linear_473_1098" x1="37.2567" y1="359.879" x2="45.8135" y2="170.255" gradientUnits="userSpaceOnUse">
<stop stop-color="#D40033"/>
<stop offset="1" stop-color="#FF5555"/>
</linearGradient>
<linearGradient id="paint3_linear_473_1098" x1="28.0146" y1="292.613" x2="32.3006" y2="197.634" gradientUnits="userSpaceOnUse">
<stop offset="3.4e-07" stop-color="white"/>
<stop offset="1" stop-color="white" stop-opacity="0"/>
</linearGradient>
<linearGradient id="paint4_linear_473_1098" x1="28.4872" y1="270.417" x2="36.5033" y2="92.7768" gradientUnits="userSpaceOnUse">
<stop stop-color="#006CD4"/>
<stop offset="1" stop-color="#00367F" stop-opacity="0"/>
</linearGradient>
<linearGradient id="paint5_linear_473_1098" x1="417.152" y1="241.401" x2="234.015" y2="238.519" gradientUnits="userSpaceOnUse">
<stop stop-color="#005AD4"/>
<stop offset="1" stop-color="#55BAFF"/>
</linearGradient>
<linearGradient id="paint6_linear_473_1098" x1="283.045" y1="250.199" x2="143.548" y2="76.7647" gradientUnits="userSpaceOnUse">
<stop stop-color="#005AD4"/>
<stop offset="1" stop-color="#55BAFF"/>
</linearGradient>
<linearGradient id="paint7_linear_473_1098" x1="249.303" y1="351.4" x2="256.646" y2="188.679" gradientUnits="userSpaceOnUse">
<stop stop-color="#005AD4"/>
<stop offset="1" stop-color="#55BAFF"/>
</linearGradient>
<linearGradient id="paint8_linear_473_1098" x1="241.372" y1="293.678" x2="245.05" y2="212.174" gradientUnits="userSpaceOnUse">
<stop offset="3.4e-07" stop-color="white"/>
<stop offset="1" stop-color="white" stop-opacity="0"/>
</linearGradient>
<linearGradient id="paint9_linear_473_1098" x1="241.777" y1="274.63" x2="248.656" y2="122.193" gradientUnits="userSpaceOnUse">
<stop stop-color="#006CD4"/>
<stop offset="1" stop-color="#00367F" stop-opacity="0"/>
</linearGradient>
<linearGradient id="paint10_linear_473_1098" x1="375.777" y1="233.803" x2="104.317" y2="120.551" gradientUnits="userSpaceOnUse">
<stop stop-color="#D40000"/>
<stop offset="1" stop-color="#FF5555"/>
</linearGradient>
<linearGradient id="paint11_linear_473_1098" x1="170.504" y1="167.143" x2="65.6067" y2="-174.55" gradientUnits="userSpaceOnUse">
<stop stop-color="#D40000"/>
<stop offset="1" stop-color="#FF5555"/>
</linearGradient>
<linearGradient id="paint12_linear_473_1098" x1="59.9646" y1="298.023" x2="167.726" y2="59.6713" gradientUnits="userSpaceOnUse">
<stop stop-color="#D40033"/>
<stop offset="1" stop-color="#FF5555"/>
</linearGradient>
<linearGradient id="paint13_linear_473_1098" x1="82.4757" y1="207.204" x2="136.451" y2="87.818" gradientUnits="userSpaceOnUse">
<stop offset="3.4e-07" stop-color="white"/>
<stop offset="1" stop-color="white" stop-opacity="0"/>
</linearGradient>
<linearGradient id="paint14_linear_473_1098" x1="94.4123" y1="179.033" x2="195.363" y2="-44.2555" gradientUnits="userSpaceOnUse">
<stop stop-color="#006CD4"/>
<stop offset="1" stop-color="#00367F" stop-opacity="0"/>
</linearGradient>
</defs>
</svg>
