<svg width="68" height="68" viewBox="0 0 68 68" fill="none" xmlns="http://www.w3.org/2000/svg">
<circle cx="34" cy="34" r="34" fill="#456DFB"/>
<path d="M45.8262 48.4603C50.7537 57.1915 58.5372 50.7429 56.6668 42.2237C53.8581 29.4286 52.3305 22.3064 51.5362 18.5445C51.309 17.4673 50.8076 16.515 50.1096 15.8349C49.4116 15.1548 48.5559 14.785 47.675 14.7826H22.2962C20.4868 14.7826 18.91 16.3418 18.4705 18.562C16.8129 26.914 15.3405 34.2458 13.5883 42.2237C11.7197 50.7429 19.5013 57.1915 24.4288 48.4603" stroke="white" stroke-width="1.5" stroke-linecap="round" stroke-linejoin="round"/>
<path d="M42.8697 14.7826V19.7719C42.8697 21.0951 42.4543 22.3642 41.7151 23.2998C40.9758 24.2355 39.9731 24.7612 38.9276 24.7612H31.0436C29.9981 24.7612 28.9954 24.2355 28.2561 23.2998C27.5169 22.3642 27.1016 21.0951 27.1016 19.7719V14.7826H42.8697ZM27.1016 44.7183C28.147 44.7183 29.1497 44.1926 29.889 43.257C30.6283 42.3213 31.0436 41.0523 31.0436 39.729C31.0436 38.4058 30.6283 37.1367 29.889 36.2011C29.1497 35.2654 28.147 34.7397 27.1016 34.7397C26.0561 34.7397 25.0534 35.2654 24.3141 36.2011C23.5748 37.1367 23.1595 38.4058 23.1595 39.729C23.1595 41.0523 23.5748 42.3213 24.3141 43.257C25.0534 44.1926 26.0561 44.7183 27.1016 44.7183V44.7183ZM42.8697 44.7183C43.9152 44.7183 44.9178 44.1926 45.6571 43.257C46.3964 42.3213 46.8117 41.0523 46.8117 39.729C46.8117 38.4058 46.3964 37.1367 45.6571 36.2011C44.9178 35.2654 43.9152 34.7397 42.8697 34.7397C41.8242 34.7397 40.8215 35.2654 40.0822 36.2011C39.343 37.1367 38.9276 38.4058 38.9276 39.729C38.9276 41.0523 39.343 42.3213 40.0822 43.257C40.8215 44.1926 41.8242 44.7183 42.8697 44.7183Z" stroke="white" stroke-width="1.5" stroke-linecap="round" stroke-linejoin="round"/>
</svg>
