<svg width="64" height="64" viewBox="0 0 64 64" fill="none" xmlns="http://www.w3.org/2000/svg">
<circle cx="32" cy="32" r="32" fill="#456DFB"/>
<path fill-rule="evenodd" clip-rule="evenodd" d="M32.4352 13.0007C32.8251 12.6878 33.2772 12.5217 33.7388 12.5217C34.2005 12.5217 34.6526 12.6878 35.0425 13.0007L46.7058 22.3618C47.0523 22.6399 47.3377 23.0243 47.5355 23.4793C47.7332 23.9343 47.8369 24.4452 47.8369 24.9645C47.8369 25.4838 47.7332 25.9947 47.5355 26.4497C47.3377 26.9047 47.0523 27.2891 46.7058 27.5672L35.0425 36.9283C34.6526 37.2412 34.2005 37.4073 33.7388 37.4073C33.2772 37.4073 32.8251 37.2412 32.4352 36.9283L20.7719 27.5672C20.4254 27.2891 20.14 26.9047 19.9422 26.4497C19.7445 25.9947 19.6408 25.4838 19.6408 24.9645C19.6408 24.4452 19.7445 23.9343 19.9422 23.4793C20.14 23.0243 20.4254 22.6399 20.7719 22.3618L32.4352 13.0007ZM33.9253 15.2318C33.8695 15.187 33.8049 15.1632 33.7388 15.1632C33.6728 15.1632 33.6082 15.187 33.5524 15.2318L21.8891 24.5929C21.8397 24.6327 21.799 24.6876 21.7708 24.7525C21.7426 24.8175 21.7278 24.8904 21.7278 24.9645C21.7278 25.0386 21.7426 25.1115 21.7708 25.1765C21.799 25.2414 21.8397 25.2963 21.8891 25.3361L33.5524 34.6972C33.6082 34.742 33.6728 34.7658 33.7388 34.7658C33.8049 34.7658 33.8695 34.742 33.9253 34.6972L45.5886 25.3361C45.638 25.2963 45.6787 25.2414 45.7069 25.1765C45.7351 25.1115 45.7498 25.0386 45.7498 24.9645C45.7498 24.8904 45.7351 24.8175 45.7069 24.7525C45.6787 24.6876 45.638 24.6327 45.5886 24.5929L33.9253 15.2318Z" fill="white"/>
<path fill-rule="evenodd" clip-rule="evenodd" d="M19.6408 32.1385C19.7141 31.992 19.8096 31.8652 19.9217 31.7654C20.0337 31.6656 20.1602 31.5947 20.2939 31.5567C20.4277 31.5188 20.566 31.5146 20.701 31.5443C20.836 31.574 20.965 31.6371 21.0808 31.7299L33.5525 41.7409C33.6082 41.7857 33.6729 41.8094 33.7389 41.8094C33.8049 41.8094 33.8696 41.7857 33.9253 41.7409L46.397 31.7299C46.5127 31.637 46.6418 31.5738 46.7769 31.5439C46.9119 31.5141 47.0503 31.5183 47.1841 31.5561C47.3178 31.594 47.4444 31.6648 47.5566 31.7646C47.6687 31.8643 47.7642 31.9911 47.8377 32.1376C47.9111 32.2841 47.9611 32.4475 47.9846 32.6184C48.0082 32.7893 48.0049 32.9644 47.975 33.1337C47.9451 33.3031 47.8892 33.4633 47.8103 33.6052C47.7315 33.7472 47.6314 33.8681 47.5156 33.961L35.0426 43.972C34.6527 44.2848 34.2005 44.4509 33.7389 44.4509C33.2773 44.4509 32.8251 44.2848 32.4352 43.972L19.9622 33.961C19.7287 33.7732 19.5636 33.4758 19.5033 33.134C19.4431 32.7922 19.4925 32.4341 19.6408 32.1385Z" fill="white"/>
<path fill-rule="evenodd" clip-rule="evenodd" d="M19.6408 39.1821C19.7141 39.0356 19.8096 38.9088 19.9217 38.809C20.0337 38.7092 20.1602 38.6383 20.2939 38.6004C20.4277 38.5624 20.566 38.5582 20.701 38.5879C20.836 38.6176 20.965 38.6807 21.0808 38.7736L33.5525 48.7845C33.6082 48.8293 33.6729 48.8531 33.7389 48.8531C33.8049 48.8531 33.8696 48.8293 33.9253 48.7845L46.397 38.7736C46.6308 38.5858 46.9139 38.5233 47.1841 38.5998C47.4542 38.6762 47.6894 38.8854 47.8377 39.1812C47.986 39.4771 48.0354 39.8354 47.975 40.1774C47.9146 40.5194 47.7494 40.8169 47.5156 41.0047L35.0426 51.0156C34.6527 51.3285 34.2005 51.4946 33.7389 51.4946C33.2773 51.4946 32.8251 51.3285 32.4352 51.0156L19.9622 41.0047C19.7286 40.8169 19.5636 40.5194 19.5033 40.1776C19.4431 39.8359 19.4925 39.4778 19.6408 39.1821Z" fill="white"/>
</svg>
